<svg xmlns="http://www.w3.org/2000/svg" height="192.27" width="131.71">
  <path
    d="M130.2 184.5c0 3.45-2.8 6.26-6.26 6.26H7.74a6.25 6.25 0 0 1-6.23-6.25V7.76c0-3.44 2.8-6.24 6.24-6.24h116.2c3.44 0 6.24 2.8 6.24 6.24v176.75"
    fill="#142c61"
  />
  <path
    d="M122.79 180.17c0 1.6-.81 3.13-3.16 3.18H11.9c-.06 0-.13 0-.21-.02a2.93 2.93 0 0 1-2.77-2.92L8.93 48.1h32.83l-13.22 4.82v72.48c0 2.03 1.12 3.1 2.84 3.25h44.58a28.32 28.32 0 0 0 14.29-52.21c4.92-4.37 8.65-11.52 8.65-18.56 0-18.75-13.3-29.4-32.31-29.4H48.11V8.94h71.52c2.44 0 3.16 1.6 3.16 3.18zM8.93 11.87c0-1.57 1.21-2.82 2.72-2.94h16.89V28.5H8.94V11.88zm38.89 35.7h21.27c5.6 0 10.1 4.78 10.1 10.33 0 5.58-4.5 10.1-10.1 10.1l-3.68.2c-1.97.07-3 1.23-3.06 3.05v12.4c.14 1.98 1.34 3 3.23 3h9.14a10.93 10.93 0 1 1 .97 21.84l-24.76.02c-1.83-.04-3.04-1.1-3.11-3.12zM125.46 0H6.23A6.24 6.24 0 0 0 0 6.25v179.77c0 3.45 2.8 6.25 6.23 6.25h119.23c3.44 0 6.24-2.8 6.24-6.25V6.25c0-3.45-2.8-6.24-6.24-6.24zM59.59 158.87l5.28-14.95 5.6 14.95zM68.9 140c-.4-.82-.68-1.35-2.12-1.35h-3.8c-1.44 0-1.73.53-2.13 1.35-.36.8-10.97 29.54-10.97 29.54s-.63 1.24.97 1.24c1.63 0 1.99.02 2.68.02.73 0 1.57-.14 1.97-1.28l1.93-5.41h14.9l1.93 5.4c.4 1.15 1.24 1.29 1.97 1.29.7 0 1.05-.02 2.68-.02 1.6 0 .97-1.24.97-1.24S69.26 140.8 68.9 140zm-27.58 14.08h-7.5v-10.16h7.5a5.09 5.09 0 1 1 0 10.16zm.08-15.43H29.7c-1 0-1.15.83-1.15 1.36v29.6c0 1.22 1.12 1.17 1.25 1.17h2.99c.49 0 1.03-.4 1.03-.96v-10.61h7.58a10.28 10.28 0 0 0 0-20.56zm59.83-.03c-1.63 0-2.36-.02-3.05-.02-.73 0-1.57.13-1.97 1.28l-1.46 2.61-5.83 10.33-5.84-10.33-1.45-2.61c-.4-1.15-1.24-1.28-1.97-1.28-.7 0-1.43.02-3.06.02-1.6 0-.97 1.24-.97 1.24l10.69 18.98-.08 10.8c0 .7.37 1.14 1.13 1.14h2.78c.5 0 1.4-.04 1.4-1.12l-.03-10.82 10.69-18.98s.62-1.24-.98-1.24"
    fill="#fff"
  />
</svg>
