<svg xmlns="http://www.w3.org/2000/svg" viewBox="0 0 610.9 133.6"><path d="M245.3 109.7H231V46.3l-21.6 45.1h-15.2l-21.6-45.1v63.3h-14.3V23.9h19.1l24.3 51.6 24.5-51.6h19.1v85.7zm36 1.1c-16.3 0-28.6-12.5-28.6-29.2s12.4-29.2 28.6-29.2c5.7 0 11.3 2.1 15.2 5.5l1.2-4.4H310v56h-12.4l-1.2-4.4c-3.7 3.7-9.5 5.7-15.1 5.7zm.6-45.7c-9.4 0-15.4 6.4-15.4 16.5s6 16.5 15.4 16.5c8.8 0 15.4-7.1 15.4-16.5s-6.7-16.5-15.4-16.5zm85.7 44.6h-13.8V75.3c-.4-7-3.6-10.3-10.3-10.3-6 0-11.2 4.9-11.5 10.9v33.6h-13.8V53.7h12.4l1 4.2c3-3.5 8.6-5.4 12.9-5.4 13.9 0 22.9 9 22.9 22.9v34.2h.2zm34.8 1.1c-16.3 0-28.6-12.5-28.6-29.2s12.4-29.2 28.6-29.2c5.7 0 11.3 2.1 15.2 5.5l1.2-4.4h12.4v56h-12.4l-1.2-4.4c-3.8 3.7-9.6 5.7-15.2 5.7zm.6-45.7c-9.4 0-15.4 6.4-15.4 16.5s6 16.5 15.4 16.5c8.8 0 15.4-7.1 15.4-16.5s-6.6-16.5-15.4-16.5zm60 68.5c-12 0-24.6-7.6-24.6-21.5 0-7 3.3-13 9.3-16.7-5.9-4.2-9.3-10.7-9.3-18.3 0-13.8 10.8-24.6 24.6-24.6 5.3 0 10.7 2.2 13.5 5.4l1-4.2h10v23.4c0 7.5-3.3 14-9.3 18.3 5.9 3.7 9.3 9.8 9.3 16.7.1 13.9-12.7 21.5-24.5 21.5zm0-31.4c-6.7 0-11.5 4-11.5 9.7s4.6 9.4 11.5 9.4 11.5-3.9 11.5-9.4c-.2-5.7-4.8-9.7-11.5-9.7zm0-37.1c-6.6 0-11.5 5-11.5 12s4.8 12 11.5 12c6.6 0 11.5-5 11.5-12-.2-6.9-4.9-12-11.5-12zm58.2 45.7c-15.7 0-27.4-12.5-27.4-29.2 0-16.9 11.6-29.2 27.4-29.2 15.1 0 26.3 12.4 26.3 28.6v.4l-1.4 4.2h-38.5c.5 6.2 5 12.5 14.2 12.5 5.9 0 10.4-2.7 12.1-7.2l.4-1.2 11.8 5.7-.6 1.2c-5 8.9-13.9 14.2-24.3 14.2zm-12.6-37.6h24.3c-1.2-4.6-6-8.1-11.7-8.1-7.9 0-11.2 4.7-12.6 8.1zm73.7 37.6c-16.3 0-28.6-12.5-28.6-29.2s12.4-29.2 28.6-29.2c5.4 0 11.1 2.1 14.8 5.3V20.5h13.8v89.2h-12.4l-1.2-4.4c-3.5 3.5-9.3 5.5-15 5.5zm.7-45.7c-9.4 0-15.4 6.4-15.4 16.5s6 16.5 15.4 16.5c8.8 0 15.4-7.1 15.4-16.5s-6.7-16.5-15.4-16.5z" fill="#280064"/><linearGradient id="a" gradientUnits="userSpaceOnUse" x1="-9.57" y1="120.029" x2="137.107" y2="173.415" gradientTransform="matrix(1 0 0 -1 0 203.276)"><stop offset="0" stop-color="#d000cc"/><stop offset=".022" stop-color="#cd01cc"/><stop offset=".331" stop-color="#a00fcb"/><stop offset=".609" stop-color="#8119ca"/><stop offset=".841" stop-color="#6d20c9"/><stop offset="1" stop-color="#6622c9"/></linearGradient><path d="M105.7 109.5h31.7V38.4c0-20-11.8-33.7-31.7-38.4v109.5zm-52.9 0h31.7V38.4c0-20-11.8-33.7-31.7-38.4v109.5zm-52.8 0h31.7V0H0v109.5z" fill="url(#a)"/></svg>